<svg width="300" height="300" viewBox="0 0 300 300" fill="none" xmlns="http://www.w3.org/2000/svg">
<path d="M0 0H280C291.046 0 300 8.95431 300 20V300H0V0Z" fill="#2D2D2D"/>
<rect x="27" width="243" height="119" fill="#1C1C1C"/>
<rect x="65" y="1" width="198" height="119" rx="8" fill="#B4B4B4"/>
<rect x="209" y="24" width="27" height="70" fill="#1C1C1C"/>
<rect x="40" y="136" width="217" height="138" fill="#DBD9C8"/>
<rect x="48" y="152" width="200" height="1" fill="#434236"/>
<rect x="48" y="167" width="200" height="1" fill="#434236"/>
<rect x="48" y="182" width="200" height="1" fill="#434236"/>
<rect x="48" y="197" width="200" height="1" fill="#434236"/>
<rect x="48" y="212" width="200" height="1" fill="#434236"/>
<rect x="48" y="227" width="200" height="1" fill="#434236"/>
<rect x="48" y="242" width="200" height="1" fill="#434236"/>
<rect x="48" y="257" width="200" height="1" fill="#434236"/>
</svg>
