<svg width="65" height="38" viewBox="0 0 65 38" fill="none" xmlns="http://www.w3.org/2000/svg">
<path d="M16.0688 5.08126C12.2144 4.1697 7.82737 4.73625 3.87927 4.73625C2.26417 4.73625 3.32143 7.14435 3.56434 8.20553C4.15956 10.8058 4.45702 13.455 4.7129 16.1025C4.75347 16.5223 4.45476 18.1546 5.06488 18.1917C7.0627 18.3133 9.06324 17.8467 11.067 17.8467C11.9863 17.8467 15.8391 17.3024 16.569 18.0575C18.1186 19.6609 17.7289 22.9865 18.5697 24.9003C19.0364 25.9627 19.4033 27.7164 19.4033 28.8871C19.4033 32.093 9.88293 31.3972 7.39904 32.6822" stroke="white" stroke-width="5" stroke-linecap="round"/>
<path d="M32.6822 5.34338C32.6822 8.27324 32.127 11.2277 31.8143 14.152C31.4587 17.4779 31.781 21.2053 30.8769 24.3912C30.0897 27.1654 30.7609 30.854 29.5577 33.4634" stroke="white" stroke-width="5" stroke-linecap="round"/>
<path d="M23.3088 3C26.0082 3 28.7837 3.03569 31.3971 3.77147C33.0379 4.2334 35.0249 4.7358 36.7452 4.7358C39.0009 4.7358 42.4639 5.13709 44.3988 6.12444" stroke="white" stroke-width="5" stroke-linecap="round"/>
<path d="M62.3644 6.79109C60.0576 6.79109 57.3601 6.12439 55.1676 6.12439C54.1076 6.12439 53.0476 6.12439 51.9876 6.12439C50.0198 6.12439 50.3524 8.51413 50.3139 10.1987C50.1634 16.7938 48.3055 23.2347 48.3055 29.7922C48.3055 30.7367 48.3055 31.6812 48.3055 32.6257C48.3055 34.2803 48.2039 34.4591 49.9792 34.4591C53.3484 34.4591 56.9474 34.5928 60.356 34.7925C61.6784 34.8699 61.8395 35.6641 62.0483 33.7924C62.3038 31.502 62.3644 29.2812 62.3644 26.9587C62.3644 25.4517 61.6522 25.792 60.356 25.792C59.3518 25.792 58.3476 25.792 57.3434 25.792" stroke="white" stroke-width="5" stroke-linecap="round"/>
</svg>
