<svg width="128" height="91" viewBox="0 0 128 91" fill="none" xmlns="http://www.w3.org/2000/svg">
<path d="M0 2.67647L128 0L124.773 11.7765L0 12.8471V2.67647Z" fill="white"/>
<path d="M51.6304 11.7764H63.4623V72.9801L52.706 76.3443L51.6304 11.7764Z" fill="white"/>
<path d="M81.21 7.89412L93.5797 9.5V63.6999L82.8234 66.9117L81.21 7.89412Z" fill="white"/>
<path d="M115.092 28.9059L121.008 28.5847L125.849 46.0353L115.092 49.7418V28.9059Z" fill="white"/>
<path d="M104.336 29.4411L115.092 28.9058L120 39.6116H104.336V29.4411Z" fill="white"/>
<path d="M115.093 46.0354H125.849L128 52.8053L93.5801 63.7001L91.5005 52.8053L115.093 46.0354Z" fill="white"/>
<path d="M0 11.7764H10.7563V40.6822L0 41.2175V11.7764Z" fill="white"/>
<path d="M8.5 29L36.5715 26.7646V39.6117L10.7563 40.6823L8.5 29Z" fill="white"/>
<path d="M25.8154 37H36.5717L36.5713 76.5H25.8149L25.8154 37Z" fill="white"/>
<path d="M25.8149 73.8706H36.5712V81.3647L15.0586 91L0.537598 82.4353L25.8149 73.8706Z" fill="white"/>
</svg>
