<svg width="512" height="364" viewBox="0 0 512 364" fill="none" xmlns="http://www.w3.org/2000/svg">
<path d="M0 17.7974C0 15.0856 2.16177 12.868 4.87275 12.799L502.497 0.130529C505.307 0.0589837 507.624 2.31766 507.624 5.12891V38.2026C507.624 40.9145 505.462 43.132 502.751 43.201L0 56V17.7974Z" fill="white"/>
<path d="M214.428 38.7693H258.188V281.346C258.188 283.538 256.76 285.475 254.666 286.123L220.905 296.566C217.689 297.561 214.428 295.156 214.428 291.789V38.7693Z" fill="white"/>
<path d="M336.957 38.7693H380.718V247.692L343.373 258.721C340.17 259.667 336.957 257.266 336.957 253.925L336.957 38.7693Z" fill="white"/>
<path d="M468.239 94.7693H507C509.761 94.7693 512 97.0079 512 99.7693V185.231H468.239V94.7693Z" fill="white"/>
<path d="M424.479 99.7693C424.479 97.0079 426.718 94.7693 429.479 94.7693H481.368V137.846H429.479C426.718 137.846 424.479 135.608 424.479 132.846V99.7693Z" fill="white"/>
<path d="M468.239 176.615H511.999V203.381C511.999 205.573 510.572 207.509 508.477 208.157L380.717 247.692L378.529 204.615L468.239 176.615Z" fill="white"/>
<path d="M0 49.5383H43.7607L45.9487 146.461L8.36384 150.433C5.46949 150.739 2.92661 148.518 2.84059 145.609L0 49.5383Z" fill="white"/>
<path d="M43.7607 103.385L143.276 93.1805C146.224 92.8782 148.786 95.1913 148.786 98.1544V135.692L43.7607 146.462V103.385Z" fill="white"/>
<path d="M105.025 127.077H148.786V292.923H105.025L105.025 127.077Z" fill="white"/>
<path d="M105.026 288.615H148.786V315.079C148.786 317.273 147.356 319.21 145.26 319.857L8.66209 362.002C5.44605 362.995 2.18799 360.59 2.18799 357.225V326.675C2.18799 324.525 3.56145 322.617 5.59929 321.934L105.026 288.615Z" fill="white"/>
</svg>
